<?xml version="1.0" standalone="no"?>
<!DOCTYPE svg PUBLIC "-//W3C//DTD SVG 20010904//EN"
 "http://www.w3.org/TR/2001/REC-SVG-20010904/DTD/svg10.dtd">
<svg version="1.0" xmlns="http://www.w3.org/2000/svg"
 width="300.000000pt" height="164.000000pt" viewBox="0 0 300.000000 164.000000"
 preserveAspectRatio="xMidYMid meet">
<metadata>
Created by potrace 1.10, written by Peter Selinger 2001-2011
</metadata>
<g transform="translate(0.000000,164.000000) scale(0.100000,-0.100000)"
fill="#000000" stroke="none">
<path d="M878 1314 c-5 -4 -8 -88 -8 -186 0 -98 3 -178 8 -178 4 0 116 21 250
47 l242 47 0 66 c0 56 -4 70 -22 87 -34 31 -117 70 -200 93 -76 22 -257 38
-270 24z m277 -69 c143 -44 194 -89 168 -148 -10 -22 -28 -27 -203 -61 -105
-20 -195 -34 -200 -31 -12 7 -14 258 -2 269 13 14 154 -4 237 -29z"/>
<path d="M1651 1300 c-91 -24 -165 -58 -208 -94 -31 -26 -33 -32 -33 -92 0
-62 1 -64 23 -59 49 11 169 35 178 35 5 0 -7 -21 -26 -46 -69 -91 -78 -84 110
-84 l165 0 0 180 0 180 -67 -1 c-38 0 -101 -9 -142 -19z m164 -160 l0 -135
-89 -3 c-116 -4 -120 -2 -99 42 16 34 16 37 -3 57 -17 19 -25 21 -96 14 -75
-6 -78 -6 -78 15 0 28 40 67 95 91 68 30 185 59 230 56 l40 -2 0 -135z"/>
<path d="M777 1223 c-4 -3 -7 -73 -7 -154 l0 -147 28 7 27 7 3 147 3 147 -24
0 c-13 0 -27 -3 -30 -7z"/>
<path d="M1900 1096 l0 -136 30 0 31 0 -3 133 -3 132 -27 3 -28 3 0 -135z"/>
<path d="M1090 945 c-228 -45 -462 -92 -520 -103 l-105 -20 398 1 c218 1 397
1 397 0 0 -2 -18 -26 -40 -55 -22 -29 -36 -54 -32 -55 4 -1 123 14 266 35
l258 37 0 65 0 65 -135 -1 -136 0 32 45 c44 61 50 71 40 70 -4 -1 -195 -39
-423 -84z m330 -9 c0 -15 11 -33 26 -45 23 -18 41 -21 121 -21 76 0 95 -3 100
-16 3 -8 1 -20 -5 -26 -10 -10 -302 -58 -360 -58 -30 0 -32 2 -26 25 4 18 1
32 -11 45 -16 18 -32 20 -139 20 -139 0 -178 12 -95 29 30 6 117 24 194 40
180 38 195 38 195 7z"/>
<path d="M1780 850 l0 -70 135 0 135 0 0 70 0 70 -135 0 -135 0 0 -70z m220
-1 c0 -17 -8 -19 -90 -19 -74 0 -90 3 -90 15 0 23 30 30 109 27 62 -3 71 -6
71 -23z"/>
<path d="M2110 850 l0 -70 113 0 113 0 0 70 0 70 -113 0 -113 0 0 -70z m178
-2 c3 -16 -5 -18 -67 -18 -53 0 -71 3 -71 13 0 24 13 28 74 25 49 -2 61 -7 64
-20z"/>
<path d="M2427 899 c-41 -32 -36 -83 10 -108 31 -16 41 -14 68 14 29 28 32 55
8 83 -28 31 -56 35 -86 11z"/>
<path d="M772 598 l3 -181 160 -3 c184 -2 271 -18 353 -65 73 -41 119 -41 197
-1 92 48 180 65 335 66 l135 1 3 163 2 162 -30 0 -30 0 0 -119 0 -118 -102 -6
c-121 -6 -212 -32 -314 -88 -39 -21 -81 -39 -92 -39 -12 0 -60 20 -106 44
-107 54 -199 78 -341 85 l-110 6 -3 138 -3 137 -30 0 -29 0 2 -182z"/>
<path d="M870 665 c0 -63 3 -115 8 -115 222 -14 365 -48 451 -109 16 -12 32
-21 35 -21 3 0 6 61 6 135 0 74 -3 135 -7 135 -5 0 -66 -9 -138 -19 -71 -11
-132 -18 -133 -16 -2 2 15 28 37 59 23 30 41 58 41 61 0 3 -67 5 -150 5 l-150
0 0 -115z m212 69 c4 -3 0 -20 -7 -38 -12 -28 -12 -36 1 -54 18 -26 56 -28
166 -11 85 13 89 9 86 -71 -3 -65 -2 -65 -128 -22 -47 16 -127 34 -178 40 -51
6 -97 14 -102 17 -14 9 -12 119 2 133 12 12 149 17 160 6z"/>
<path d="M1548 717 l-138 -20 0 -138 c0 -77 2 -139 5 -139 2 0 26 14 52 30 85
54 209 86 386 99 4 1 7 44 7 96 l0 95 -87 -1 c-49 -1 -150 -11 -225 -22z m256
-23 c12 -4 16 -20 16 -55 0 -55 3 -53 -105 -64 -33 -3 -98 -19 -145 -36 -47
-17 -93 -33 -102 -36 -16 -5 -18 3 -18 70 0 50 4 79 13 84 14 9 222 40 284 42
23 0 48 -2 57 -5z"/>
</g>
</svg>
